<?xml version="1.0" encoding="UTF-8" standalone="no"?>
<!-- Created with Inkscape (http://www.inkscape.org/) -->

<svg
   xmlns:dc="http://purl.org/dc/elements/1.1/"
   xmlns:cc="http://creativecommons.org/ns#"
   xmlns:rdf="http://www.w3.org/1999/02/22-rdf-syntax-ns#"
   xmlns:svg="http://www.w3.org/2000/svg"
   xmlns="http://www.w3.org/2000/svg"
   xmlns:sodipodi="http://sodipodi.sourceforge.net/DTD/sodipodi-0.dtd"
   xmlns:inkscape="http://www.inkscape.org/namespaces/inkscape"
   width="400"
   height="100"
   viewBox="0 0 105.83333 26.458333"
   version="1.1"
   id="svg2610"
   inkscape:version="0.92.2 5c3e80d, 2017-08-06"
   sodipodi:docname="pontifeX.svg"
   inkscape:export-filename="/Users/monoidmusician/Documents/pontifeX.png"
   inkscape:export-xdpi="96"
   inkscape:export-ydpi="96">
  <defs
     id="defs2604" />
  <sodipodi:namedview
     id="base"
     pagecolor="#ffffff"
     bordercolor="#666666"
     borderopacity="1.0"
     inkscape:pageopacity="0.0"
     inkscape:pageshadow="2"
     inkscape:zoom="1.4142136"
     inkscape:cx="212.81966"
     inkscape:cy="95.376246"
     inkscape:document-units="mm"
     inkscape:current-layer="layer1"
     showgrid="false"
     units="px"
     inkscape:snap-midpoints="true"
     inkscape:window-width="1440"
     inkscape:window-height="855"
     inkscape:window-x="0"
     inkscape:window-y="1"
     inkscape:window-maximized="1"
     showguides="true"
     inkscape:guide-bbox="true"
     inkscape:snap-intersection-paths="true"
     inkscape:snap-page="true" />
  <metadata
     id="metadata2607">
    <rdf:RDF>
      <cc:Work
         rdf:about="">
        <dc:format>image/svg+xml</dc:format>
        <dc:type
           rdf:resource="http://purl.org/dc/dcmitype/StillImage" />
        <dc:title></dc:title>
      </cc:Work>
    </rdf:RDF>
  </metadata>
  <g
     inkscape:label="Layer 1"
     inkscape:groupmode="layer"
     id="layer1"
     transform="translate(0,-270.54166)">
    <rect
       transform="matrix(6.1665726,0,0,6.1665726,-4.0038986,-1518.3595)"
       style="font-style:normal;font-variant:normal;font-weight:normal;font-stretch:normal;font-size:2.14271283px;line-height:1.25;font-family:'Gill Sans';-inkscape-font-specification:'Gill Sans';letter-spacing:0px;word-spacing:0px;fill:#ffffff;fill-opacity:1;stroke:none;stroke-width:0.04290606;opacity:1;stroke-linecap:butt;stroke-linejoin:bevel;stroke-miterlimit:4;stroke-dasharray:none;stroke-opacity:1;paint-order:normal"
       id="rect850"
       width="17.162424"
       height="4.290606"
       x="0.64929074"
       y="290.0965" />
    <g
       aria-label="~~~~~~"
       transform="scale(-1,1)"
       style="font-style:normal;font-variant:normal;font-weight:normal;font-stretch:normal;font-size:22.79179192px;line-height:1.25;font-family:sans-serif;-inkscape-font-specification:'Gill Sans';letter-spacing:0px;word-spacing:0px;fill:#cfe5ed;fill-opacity:1;stroke:none;stroke-width:0.07000435"
       id="text918">
      <path
         d="m -81.619252,288.68706 v 1.98093 q -1.168525,0.87918 -2.170117,1.25756 -0.990464,0.37837 -2.069958,0.37837 -1.224168,0 -2.848974,-0.65659 -0.122417,-0.0445 -0.178061,-0.0668 -0.0779,-0.0334 -0.244834,-0.089 -1.724964,-0.68998 -2.771072,-0.68998 -0.979335,0 -1.936412,0.43402 -0.957077,0.42289 -2.0477,1.34659 v -1.98093 q 1.168525,-0.87918 2.158988,-1.25756 1.001593,-0.38951 2.081087,-0.38951 1.224168,0 2.860102,0.66773 0.111288,0.0445 0.166932,0.0668 0.08903,0.0334 0.244834,0.089 1.724965,0.68998 2.771073,0.68998 0.957077,0 1.891896,-0.42289 0.945949,-0.4229 2.092216,-1.35772 z"
         style="letter-spacing:-4.8090682px;fill:#cfe5ed;fill-opacity:1;stroke-width:0.07000435"
         id="path876" />
      <path
         d="m -67.331292,288.68706 v 1.98093 q -1.168525,0.87918 -2.170117,1.25756 -0.990464,0.37837 -2.069958,0.37837 -1.224168,0 -2.848974,-0.65659 -0.122417,-0.0445 -0.178061,-0.0668 -0.0779,-0.0334 -0.244833,-0.089 -1.724965,-0.68998 -2.771073,-0.68998 -0.979335,0 -1.936412,0.43402 -0.957077,0.42289 -2.0477,1.34659 v -1.98093 q 1.168525,-0.87918 2.158988,-1.25756 1.001593,-0.38951 2.081087,-0.38951 1.224168,0 2.860102,0.66773 0.111289,0.0445 0.166933,0.0668 0.08903,0.0334 0.244833,0.089 1.724965,0.68998 2.771073,0.68998 0.957077,0 1.891896,-0.42289 0.945949,-0.4229 2.092216,-1.35772 z"
         style="letter-spacing:-4.8090682px;fill:#cfe5ed;fill-opacity:1;stroke-width:0.07000435"
         id="path878" />
      <path
         d="m -53.043332,288.68706 v 1.98093 q -1.168525,0.87918 -2.170117,1.25756 -0.990464,0.37837 -2.069958,0.37837 -1.224168,0 -2.848974,-0.65659 -0.122417,-0.0445 -0.178061,-0.0668 -0.0779,-0.0334 -0.244833,-0.089 -1.724965,-0.68998 -2.771073,-0.68998 -0.979335,0 -1.936412,0.43402 -0.957077,0.42289 -2.0477,1.34659 v -1.98093 q 1.168525,-0.87918 2.158988,-1.25756 1.001593,-0.38951 2.081087,-0.38951 1.224168,0 2.860103,0.66773 0.111288,0.0445 0.166932,0.0668 0.08903,0.0334 0.244833,0.089 1.724965,0.68998 2.771073,0.68998 0.957077,0 1.891896,-0.42289 0.945949,-0.4229 2.092216,-1.35772 z"
         style="letter-spacing:-4.8090682px;fill:#cfe5ed;fill-opacity:1;stroke-width:0.07000435"
         id="path880" />
      <path
         d="m -38.755372,288.68706 v 1.98093 q -1.168525,0.87918 -2.170117,1.25756 -0.990464,0.37837 -2.069958,0.37837 -1.224168,0 -2.848974,-0.65659 -0.122417,-0.0445 -0.178061,-0.0668 -0.0779,-0.0334 -0.244833,-0.089 -1.724965,-0.68998 -2.771073,-0.68998 -0.979335,0 -1.936412,0.43402 -0.957077,0.42289 -2.0477,1.34659 v -1.98093 q 1.168525,-0.87918 2.158988,-1.25756 1.001593,-0.38951 2.081087,-0.38951 1.224168,0 2.860103,0.66773 0.111288,0.0445 0.166932,0.0668 0.08903,0.0334 0.244833,0.089 1.724965,0.68998 2.771073,0.68998 0.957077,0 1.891896,-0.42289 0.945949,-0.4229 2.092216,-1.35772 z"
         style="letter-spacing:-4.8090682px;fill:#cfe5ed;fill-opacity:1;stroke-width:0.07000435"
         id="path882" />
      <path
         d="m -24.467412,288.68706 v 1.98093 q -1.168525,0.87918 -2.170117,1.25756 -0.990464,0.37837 -2.069958,0.37837 -1.224168,0 -2.848974,-0.65659 -0.122417,-0.0445 -0.178061,-0.0668 -0.0779,-0.0334 -0.244833,-0.089 -1.724965,-0.68998 -2.771073,-0.68998 -0.979334,0 -1.936412,0.43402 -0.957077,0.42289 -2.0477,1.34659 v -1.98093 q 1.168525,-0.87918 2.158988,-1.25756 1.001593,-0.38951 2.081087,-0.38951 1.224168,0 2.860103,0.66773 0.111288,0.0445 0.166932,0.0668 0.08903,0.0334 0.244833,0.089 1.724965,0.68998 2.771073,0.68998 0.957077,0 1.891897,-0.42289 0.945948,-0.4229 2.092215,-1.35772 z"
         style="letter-spacing:-4.8090682px;fill:#cfe5ed;fill-opacity:1;stroke-width:0.07000435"
         id="path884" />
      <path
         d="m -10.179448,288.68706 v 1.98093 q -1.168525,0.87918 -2.170117,1.25756 -0.990464,0.37837 -2.069958,0.37837 -1.224168,0 -2.848974,-0.65659 -0.122417,-0.0445 -0.178061,-0.0668 -0.0779,-0.0334 -0.244833,-0.089 -1.724965,-0.68998 -2.771073,-0.68998 -0.979335,0 -1.936412,0.43402 -0.957077,0.42289 -2.0477,1.34659 v -1.98093 q 1.168525,-0.87918 2.158988,-1.25756 1.001593,-0.38951 2.081087,-0.38951 1.224168,0 2.860102,0.66773 0.111289,0.0445 0.166933,0.0668 0.08903,0.0334 0.244833,0.089 1.724965,0.68998 2.771073,0.68998 0.957077,0 1.891896,-0.42289 0.945949,-0.4229 2.092216,-1.35772 z"
         style="letter-spacing:-4.8090682px;fill:#cfe5ed;fill-opacity:1;stroke-width:0.07000435"
         id="path886" />
    </g>
    <g
       aria-label="pontifeX TT    TT"
       style="font-style:normal;font-variant:normal;font-weight:normal;font-stretch:normal;font-size:2.14271283px;line-height:1.25;font-family:'Gill Sans';-inkscape-font-specification:'Gill Sans';letter-spacing:0px;word-spacing:0px;fill:#000000;fill-opacity:1;stroke:none;stroke-width:0.04290606"
       id="text3157"
       transform="matrix(6.1665726,0,0,6.1665726,-4.0038987,-1518.3595)">
      <g
         id="g889"
         style="fill:#e9ddd2;fill-opacity:1;stroke-width:0.04290606">
        <path
           d="m 16.348086,292.18111 v 0.12526 h -0.835065 v -0.12004 h 0.31054 l -0.519306,-0.66023 -0.527134,0.66023 h 0.315758 v 0.12004 h -0.822016 v -0.12526 h 0.352293 l 0.597593,-0.7359 -0.657614,-0.80375 h -0.292272 v -0.12526 h 0.379614 c 0.452789,0.55497 0.905579,1.10994 1.358368,1.66491 z"
           style="font-style:normal;font-variant:normal;font-weight:300;font-stretch:normal;font-size:2.60957646px;line-height:0;font-family:BioRhyme;-inkscape-font-specification:'BioRhyme Light';letter-spacing:0px;word-spacing:0px;fill:#d2baa3;fill-opacity:1;stroke:none;stroke-width:0.04290606"
           id="path906"
           inkscape:connector-curvature="0"
           sodipodi:nodetypes="ccccccccccccccccccc" />
        <g
           id="g954"
           style="fill:#e9dfd2;fill-opacity:1">
          <path
             d="m 12.312585,292.18111 v 0.12526 H 11.47752 v -0.12004 h 0.31054 l -0.519306,-0.66023 -0.527134,0.66023 h 0.315758 v 0.12004 h -0.822016 v -0.12526 h 0.352293 l 0.597593,-0.7359 -0.657614,-0.80375 h -0.292272 v -0.12526 h 0.837674 v 0.12004 h -0.360122 l 0.568888,0.70458 0.571497,-0.70458 h -0.36795 v -0.12004 h 0.824626 v 0.12526 h -0.300101 l -0.641956,0.78026 0.605422,0.75939 z"
             style="font-style:normal;font-variant:normal;font-weight:300;font-stretch:normal;font-size:2.60957646px;line-height:0;font-family:BioRhyme;-inkscape-font-specification:'BioRhyme Light';letter-spacing:0px;word-spacing:0px;fill:#e9dfd2;fill-opacity:1;stroke:none;stroke-width:0.04290606"
             id="path77"
             inkscape:connector-curvature="0" />
          <g
             style="fill:#e9dfd2;fill-opacity:1;stroke-width:0.04290606"
             transform="translate(0.10945801)"
             id="g892">
            <path
               d="m 10.167153,292.18111 v 0.12526 H 9.332088 v -0.12004 h 0.31054 l -0.519306,-0.66023 -0.527134,0.66023 h 0.315758 v 0.12004 H 8.08993 v -0.12526 h 0.352293 l 0.597593,-0.7359 -0.657614,-0.80375 H 8.08993 v -0.12526 h 0.837674 v 0.12004 H 8.567482 l 0.568888,0.70458 0.571497,-0.70458 h -0.36795 v -0.12004 h 0.824626 v 0.12526 H 9.864442 l -0.641956,0.78026 0.605422,0.75939 z"
               style="font-style:normal;font-variant:normal;font-weight:300;font-stretch:normal;font-size:2.60957646px;line-height:0;font-family:BioRhyme;-inkscape-font-specification:'BioRhyme Light';letter-spacing:0px;word-spacing:0px;fill:#e9dfd2;fill-opacity:1;stroke:none;stroke-width:0.04290606"
               id="path885"
               inkscape:connector-curvature="0" />
          </g>
          <g
             style="fill:#e9dfd2;fill-opacity:1;stroke-width:0.04290606"
             transform="translate(-1.9265159)"
             id="g896">
            <path
               inkscape:connector-curvature="0"
               id="path894"
               style="font-style:normal;font-variant:normal;font-weight:300;font-stretch:normal;font-size:2.60957646px;line-height:0;font-family:BioRhyme;-inkscape-font-specification:'BioRhyme Light';letter-spacing:0px;word-spacing:0px;fill:#e9dfd2;fill-opacity:1;stroke:none;stroke-width:0.04290606"
               d="m 10.167153,292.18111 v 0.12526 H 9.332088 v -0.12004 h 0.31054 l -0.519306,-0.66023 -0.527134,0.66023 h 0.315758 v 0.12004 H 8.08993 v -0.12526 h 0.352293 l 0.597593,-0.7359 -0.657614,-0.80375 H 8.08993 v -0.12526 h 0.837674 v 0.12004 H 8.567482 l 0.568888,0.70458 0.571497,-0.70458 h -0.36795 v -0.12004 h 0.824626 v 0.12526 H 9.864442 l -0.641956,0.78026 0.605422,0.75939 z" />
          </g>
          <g
             style="fill:#e9dfd2;fill-opacity:1;stroke-width:0.04290606"
             id="g900"
             transform="translate(-3.9517632)">
            <path
               d="m 10.167153,292.18111 v 0.12526 H 9.332088 v -0.12004 h 0.31054 l -0.519306,-0.66023 -0.527134,0.66023 h 0.315758 v 0.12004 H 8.08993 v -0.12526 h 0.352293 l 0.597593,-0.7359 -0.657614,-0.80375 H 8.08993 v -0.12526 h 0.837674 v 0.12004 H 8.567482 l 0.568888,0.70458 0.571497,-0.70458 h -0.36795 v -0.12004 h 0.824626 v 0.12526 H 9.864442 l -0.641956,0.78026 0.605422,0.75939 z"
               style="font-style:normal;font-variant:normal;font-weight:300;font-stretch:normal;font-size:2.60957646px;line-height:0;font-family:BioRhyme;-inkscape-font-specification:'BioRhyme Light';letter-spacing:0px;word-spacing:0px;fill:#e9dfd2;fill-opacity:1;stroke:none;stroke-width:0.04290606"
               id="path898"
               inkscape:connector-curvature="0" />
          </g>
          <g
             style="fill:#e9dfd2;fill-opacity:1;stroke-width:0.04290606"
             id="g912"
             transform="translate(-5.9770105)">
            <path
               sodipodi:nodetypes="ccccccccccccccccccc"
               d="m 10.167153,292.18111 v 0.12526 H 9.332088 v -0.12004 h 0.31054 l -0.519306,-0.66023 -0.527134,0.66023 h 0.315758 v 0.12004 H 8.08993 v -0.12526 h 0.352293 l 1.3639459,-1.66491 h 0.3583741 v 0.12526 H 9.864442 l -0.641956,0.78026 0.605422,0.75939 z"
               style="font-style:normal;font-variant:normal;font-weight:300;font-stretch:normal;font-size:2.60957646px;line-height:0;font-family:BioRhyme;-inkscape-font-specification:'BioRhyme Light';letter-spacing:0px;word-spacing:0px;fill:#e9dfd2;fill-opacity:1;stroke:none;stroke-width:0.04290606"
               id="path910"
               inkscape:connector-curvature="0" />
          </g>
        </g>
      </g>
      <g
         style="fill:#e9dfd2;fill-opacity:1;stroke-width:0.04290606"
         transform="translate(-0.5692741,-0.91613283)"
         id="g61">
        <path
           inkscape:connector-curvature="0"
           id="path34"
           style="font-style:normal;font-variant:normal;font-weight:300;font-stretch:normal;font-size:2.60957646px;line-height:0;font-family:BioRhyme;-inkscape-font-specification:'BioRhyme Light';fill:#e9dfd2;fill-opacity:1;stroke-width:0.04290606"
           d="m 4.4384385,293.19459 v 0.50626 h -0.135698 v -0.381 H 3.634689 v 1.53965 h 0.3862173 v 0.12526 H 3.1049449 v -0.12526 h 0.3836078 v -1.53965 H 2.8205011 v 0.381 H 2.6821936 v -0.50626 z" />
        <path
           inkscape:connector-curvature="0"
           id="path36"
           style="font-style:normal;font-variant:normal;font-weight:300;font-stretch:normal;font-size:2.60957646px;line-height:0;font-family:BioRhyme;-inkscape-font-specification:'BioRhyme Light';fill:#e9dfd2;fill-opacity:1;stroke-width:0.04290606"
           d="m 6.0589855,293.19459 v 0.50626 h -0.135698 v -0.381 H 5.255236 v 1.53965 h 0.3862173 v 0.12526 H 4.7254919 v -0.12526 h 0.3836078 v -1.53965 H 4.4410481 v 0.381 H 4.3027405 v -0.50626 z" />
      </g>
      <g
         style="fill:#2d6281;fill-opacity:1;stroke-width:0.04290606"
         transform="translate(3.291148,-0.91613283)"
         id="g65">
        <path
           inkscape:connector-curvature="0"
           id="path38"
           style="font-style:normal;font-variant:normal;font-weight:300;font-stretch:normal;font-size:2.60957646px;line-height:0;font-family:BioRhyme;-inkscape-font-specification:'BioRhyme Light';fill:#2d6281;fill-opacity:1;stroke-width:0.04290606"
           d="m 11.436385,293.19459 v 0.50626 h -0.135698 v -0.381 h -0.668052 v 1.53965 h 0.386218 v 0.12526 h -0.915962 v -0.12526 h 0.383608 v -1.53965 H 9.8184474 v 0.381 H 9.6801398 v -0.50626 z" />
        <path
           inkscape:connector-curvature="0"
           id="path40"
           style="font-style:normal;font-variant:normal;font-weight:300;font-stretch:normal;font-size:2.60957646px;line-height:0;font-family:BioRhyme;-inkscape-font-specification:'BioRhyme Light';fill:#2d6281;fill-opacity:1;stroke-width:0.04290606"
           d="m 13.056938,293.19459 v 0.50626 H 12.92124 v -0.381 h -0.668051 v 1.53965 h 0.386217 v 0.12526 h -0.915961 v -0.12526 h 0.383607 v -1.53965 h -0.668051 v 0.381 h -0.138308 v -0.50626 z" />
      </g>
      <g
         id="g51"
         style="fill:#2d6281;fill-opacity:1;stroke-width:0.04290606">
        <path
           id="path18"
           style="font-style:normal;font-variant:normal;font-weight:300;font-stretch:normal;font-size:2.60957646px;line-height:0;font-family:BioRhyme;-inkscape-font-specification:'BioRhyme Light';fill:#2d6281;fill-opacity:1;stroke-width:0.04290606"
           d="m 3.56684,291.04333 q 0.1565746,0 0.2870534,0.0783 0.1304788,0.0757 0.2061565,0.2192 0.078287,0.14353 0.078287,0.32881 0,0.19572 -0.086116,0.34968 -0.083506,0.15136 -0.2270332,0.23747 -0.1435267,0.0835 -0.3105396,0.0835 -0.1356979,0 -0.2453001,-0.0496 -0.1096023,-0.0522 -0.2113757,-0.14353 v 0.60542 h 0.3183683 v 0.12265 H 2.6169541 v -0.12265 h 0.3001013 v -1.55269 H 2.6169541 v -0.12265 h 0.4410185 v 0.21659 q 0.1017734,-0.11221 0.2322523,-0.18006 0.1330884,-0.0705 0.2766151,-0.0705 z m -0.070459,1.1717 q 0.135698,0 0.2479098,-0.0679 0.1148213,-0.0705 0.1800607,-0.19572 0.067849,-0.12526 0.067849,-0.28183 0,-0.15136 -0.06002,-0.26357 -0.057411,-0.11482 -0.1591842,-0.17484 -0.1017735,-0.0626 -0.2270331,-0.0626 -0.1383076,0 -0.2635673,0.0705 -0.1226501,0.0678 -0.2244235,0.18528 v 0.60281 q 0.2113757,0.18789 0.4384088,0.18789 z"
           inkscape:connector-curvature="0" />
        <path
           id="path20"
           style="font-style:normal;font-variant:normal;font-weight:300;font-stretch:normal;font-size:2.60957646px;line-height:0;font-family:BioRhyme;-inkscape-font-specification:'BioRhyme Light';fill:#2d6281;fill-opacity:1;stroke-width:0.04290606"
           d="m 5.0652669,292.3429 q -0.1774512,-0.003 -0.3288066,-0.0835 -0.1487459,-0.0809 -0.2374715,-0.22703 -0.086116,-0.14875 -0.086116,-0.33924 0,-0.19311 0.086116,-0.33925 0.088726,-0.14875 0.2374715,-0.22703 0.1513554,-0.0809 0.3288066,-0.0835 0.1748416,0.003 0.3235875,0.0835 0.1487458,0.0783 0.2374714,0.22703 0.088726,0.14614 0.088726,0.33925 0,0.19049 -0.088726,0.33924 -0.086116,0.14614 -0.2348619,0.22703 -0.1487458,0.0809 -0.326197,0.0835 z m 0,-0.12265 q 0.1461363,0 0.2583481,-0.0652 0.1148213,-0.0679 0.1800607,-0.18528 0.065239,-0.12004 0.065239,-0.27661 0,-0.15658 -0.065239,-0.27401 -0.065239,-0.12004 -0.1800607,-0.18528 -0.1122118,-0.0679 -0.2583481,-0.0679 -0.1461363,0 -0.2609577,0.0679 -0.1148213,0.0652 -0.1800607,0.18528 -0.065239,0.11743 -0.065239,0.27401 0,0.15657 0.065239,0.27661 0.065239,0.11743 0.1800607,0.18528 0.1148214,0.0652 0.2609577,0.0652 z"
           inkscape:connector-curvature="0" />
        <path
           id="path22"
           style="font-style:normal;font-variant:normal;font-weight:300;font-stretch:normal;font-size:2.60957646px;line-height:0;font-family:BioRhyme;-inkscape-font-specification:'BioRhyme Light';fill:#2d6281;fill-opacity:1;stroke-width:0.04290606"
           d="m 7.6656284,292.18372 v 0.12265 H 7.0054055 v -0.12265 h 0.2479098 v -0.64196 q 0,-0.36534 -0.3105396,-0.36534 -0.1330884,0 -0.2766151,0.0861 -0.1435267,0.0861 -0.2818343,0.23486 v 0.68632 h 0.2479098 v 0.12265 H 5.9380888 v -0.12265 h 0.3027108 v -0.98381 H 5.9380888 v -0.12265 h 0.4462375 v 0.29749 q 0.1487459,-0.15919 0.2948822,-0.2453 0.1461363,-0.0861 0.3053204,-0.0861 0.1931087,0 0.3027109,0.12265 0.1096022,0.12265 0.1096022,0.36273 v 0.65501 z"
           inkscape:connector-curvature="0" />
        <path
           id="path24"
           style="font-style:normal;font-variant:normal;font-weight:300;font-stretch:normal;font-size:2.60957646px;line-height:0;font-family:BioRhyme;-inkscape-font-specification:'BioRhyme Light';fill:#2d6281;fill-opacity:1;stroke-width:0.04290606"
           d="m 8.793781,292.2333 q -0.099164,0.0522 -0.1852799,0.0783 -0.083507,0.0287 -0.1904991,0.0287 -0.172232,0 -0.2818343,-0.10699 -0.1069926,-0.1096 -0.1069926,-0.32881 v -0.70458 H 7.7290738 v -0.12265 h 0.3001013 v -0.34186 h 0.1435267 v 0.34186 h 0.4566759 v 0.12265 H 8.1727018 v 0.7098 q 0,0.16179 0.073068,0.23225 0.075678,0.0679 0.1852799,0.0679 0.153965,0 0.30793,-0.0913 z"
           inkscape:connector-curvature="0" />
        <path
           id="path26"
           style="font-style:normal;font-variant:normal;font-weight:300;font-stretch:normal;font-size:2.60957646px;line-height:0;font-family:BioRhyme;-inkscape-font-specification:'BioRhyme Light';fill:#2d6281;fill-opacity:1;stroke-width:0.04290606"
           d="m 9.248785,290.72757 q -0.065239,0 -0.1096022,-0.0339 -0.044363,-0.0365 -0.044363,-0.0887 0,-0.0522 0.044363,-0.0887 0.044363,-0.0365 0.1096022,-0.0365 0.070459,0 0.1148213,0.0365 0.046972,0.0339 0.046972,0.0887 0,0.0522 -0.044363,0.0887 -0.044363,0.0339 -0.1174303,0.0339 z m 0.4123131,1.45615 v 0.12265 H 8.90954 v -0.12265 h 0.3027109 v -0.98381 H 8.90954 v -0.12265 h 0.4462376 v 1.10646 z"
           inkscape:connector-curvature="0" />
        <path
           id="path28"
           style="font-style:normal;font-variant:normal;font-weight:300;font-stretch:normal;font-size:2.60957646px;line-height:0;font-family:BioRhyme;-inkscape-font-specification:'BioRhyme Light';fill:#2d6281;fill-opacity:1;stroke-width:0.04290606"
           d="m 10.542605,290.51881 q -0.130479,0 -0.213986,0.0887 -0.08351,0.0861 -0.08351,0.26879 v 0.20094 h 0.412313 v 0.12265 h -0.412313 v 0.98381 h 0.380998 v 0.12265 H 9.8014849 v -0.12265 h 0.3027111 v -0.98381 H 9.8014849 v -0.12265 h 0.3027111 v -0.19311 q 0,-0.24269 0.117431,-0.36534 0.117431,-0.12526 0.310539,-0.12526 0.104383,0 0.195719,0.0339 0.09394,0.0313 0.213985,0.0913 l -0.05741,0.11482 q -0.18528,-0.11482 -0.341854,-0.11482 z"
           inkscape:connector-curvature="0" />
        <path
           id="path30"
           style="font-style:normal;font-variant:normal;font-weight:300;font-stretch:normal;font-size:2.60957646px;line-height:0;font-family:BioRhyme;-inkscape-font-specification:'BioRhyme Light';fill:#2d6281;fill-opacity:1;stroke-width:0.04290606"
           d="m 12.070226,292.13152 q -0.112212,0.0992 -0.237471,0.15397 -0.12526,0.0548 -0.284444,0.0548 -0.167013,0 -0.315759,-0.0705 -0.148746,-0.0731 -0.240081,-0.21137 -0.09134,-0.13831 -0.09134,-0.32881 0,-0.21399 0.09655,-0.36795 0.09656,-0.15658 0.24791,-0.23486 0.151355,-0.0809 0.315759,-0.0809 0.140917,0 0.253129,0.0496 0.114821,0.0496 0.18006,0.1357 0.06524,0.0861 0.06524,0.19572 0,0.11221 -0.07046,0.1905 -0.06785,0.0783 -0.18267,0.12004 -0.112212,0.0391 -0.240081,0.0391 -0.133088,0 -0.258348,-0.0287 -0.12526,-0.0313 -0.266177,-0.0835 -0.0026,0.0209 -0.0026,0.0626 0,0.14353 0.06785,0.25574 0.07046,0.1096 0.18528,0.17223 0.117431,0.06 0.24791,0.06 0.146136,0 0.253129,-0.0444 0.109602,-0.047 0.208766,-0.13309 z m -0.503648,-0.96554 q -0.167013,0 -0.313149,0.1096 -0.146137,0.107 -0.195719,0.29489 0.258349,0.0913 0.490601,0.0913 0.148746,0 0.258348,-0.06 0.109602,-0.0626 0.109602,-0.17484 0,-0.11743 -0.09655,-0.18789 -0.09655,-0.0731 -0.253129,-0.0731 z"
           inkscape:connector-curvature="0" />
        <path
           id="path32"
           style="font-style:normal;font-variant:normal;font-weight:300;font-stretch:normal;font-size:2.60957646px;line-height:0;font-family:BioRhyme;-inkscape-font-specification:'BioRhyme Light';fill:#2d6281;fill-opacity:1;stroke-width:0.04290606"
           d="m 14.316379,292.18111 v 0.12526 h -0.835065 v -0.12004 h 0.31054 l -0.519306,-0.66023 -0.527134,0.66023 h 0.315758 v 0.12004 h -0.822016 v -0.12526 h 0.352293 l 0.597593,-0.7359 -0.657614,-0.80375 h -0.292272 v -0.12526 h 0.837674 v 0.12004 h -0.360122 l 0.568888,0.70458 0.571497,-0.70458 h -0.36795 v -0.12004 h 0.824626 v 0.12526 h -0.300101 l -0.641956,0.78026 0.605422,0.75939 z"
           inkscape:connector-curvature="0" />
      </g>
    </g>
  </g>
</svg>
